<mxfile host="app.diagrams.net" agent="Mozilla/5.0 (Windows NT 10.0; Win64; x64) AppleWebKit/537.36 (KHTML, like Gecko) Chrome/131.0.0.0 Safari/537.36" version="25.0.1" pages="6">
  <diagram name="Desktop Home" id="M36JtUirSH0LhK77LYyt">
    <mxGraphModel dx="1953" dy="943" grid="1" gridSize="10" guides="1" tooltips="1" connect="1" arrows="1" fold="1" page="1" pageScale="1" pageWidth="1100" pageHeight="850" math="0" shadow="0">
      <root>
        <mxCell id="0" />
        <mxCell id="1" parent="0" />
        <mxCell id="CjwR9QexM5506jJRzgE3-3" value="" style="swimlane;shape=mxgraph.bootstrap.anchor;strokeColor=#999999;fillColor=#ffffff;fontColor=#666666;childLayout=stackLayout;horizontal=0;startSize=0;horizontalStack=1;resizeParent=1;resizeParentMax=0;resizeLast=0;collapsible=0;marginBottom=0;whiteSpace=wrap;html=1;" vertex="1" parent="1">
          <mxGeometry x="780" y="10" width="300" height="60" as="geometry" />
        </mxCell>
        <mxCell id="CjwR9QexM5506jJRzgE3-4" value="Home" style="text;strokeColor=inherit;align=center;verticalAlign=middle;spacingLeft=10;spacingRight=10;overflow=hidden;points=[[0,0.5],[1,0.5]];portConstraint=eastwest;rotatable=0;whiteSpace=wrap;html=1;fillColor=inherit;fontColor=inherit;fontSize=17;" vertex="1" parent="CjwR9QexM5506jJRzgE3-3">
          <mxGeometry width="90" height="60" as="geometry" />
        </mxCell>
        <mxCell id="CjwR9QexM5506jJRzgE3-5" value="Catalog" style="text;strokeColor=inherit;align=center;verticalAlign=middle;spacingLeft=10;spacingRight=10;overflow=hidden;points=[[0,0.5],[1,0.5]];portConstraint=eastwest;rotatable=0;whiteSpace=wrap;html=1;fillColor=inherit;fontColor=inherit;fontSize=17;" vertex="1" parent="CjwR9QexM5506jJRzgE3-3">
          <mxGeometry x="90" width="90" height="60" as="geometry" />
        </mxCell>
        <mxCell id="CjwR9QexM5506jJRzgE3-9" value="Rate" style="text;strokeColor=inherit;align=center;verticalAlign=middle;spacingLeft=10;spacingRight=10;overflow=hidden;points=[[0,0.5],[1,0.5]];portConstraint=eastwest;rotatable=0;whiteSpace=wrap;html=1;fillColor=inherit;fontColor=inherit;fontSize=17;" vertex="1" parent="CjwR9QexM5506jJRzgE3-3">
          <mxGeometry x="180" width="120" height="60" as="geometry" />
        </mxCell>
        <mxCell id="CjwR9QexM5506jJRzgE3-11" value="&lt;font style=&quot;font-size: 18px;&quot;&gt;Cinema Orellana&lt;/font&gt;" style="text;html=1;align=left;verticalAlign=middle;whiteSpace=wrap;rounded=0;" vertex="1" parent="1">
          <mxGeometry x="10" y="25" width="290" height="30" as="geometry" />
        </mxCell>
        <mxCell id="CjwR9QexM5506jJRzgE3-19" value="" style="verticalLabelPosition=bottom;verticalAlign=top;html=1;shape=mxgraph.basic.rect;fillColor2=none;strokeWidth=1;size=20;indent=0;" vertex="1" parent="1">
          <mxGeometry y="790" width="1100" height="60" as="geometry" />
        </mxCell>
        <mxCell id="CjwR9QexM5506jJRzgE3-24" value="Top Best Movies" style="swimlane;" vertex="1" parent="1">
          <mxGeometry x="20" y="100" width="1060" height="230" as="geometry" />
        </mxCell>
        <mxCell id="CjwR9QexM5506jJRzgE3-27" value="" style="group" vertex="1" connectable="0" parent="CjwR9QexM5506jJRzgE3-24">
          <mxGeometry x="10" y="40" width="310" height="180" as="geometry" />
        </mxCell>
        <mxCell id="CjwR9QexM5506jJRzgE3-28" value="" style="rounded=0;whiteSpace=wrap;html=1;fillColor=none;shadow=0;glass=0;strokeWidth=3;" vertex="1" parent="CjwR9QexM5506jJRzgE3-27">
          <mxGeometry width="310" height="180" as="geometry" />
        </mxCell>
        <mxCell id="CjwR9QexM5506jJRzgE3-29" value="" style="endArrow=none;html=1;rounded=0;exitX=0;exitY=0;exitDx=0;exitDy=0;entryX=1;entryY=1;entryDx=0;entryDy=0;" edge="1" parent="CjwR9QexM5506jJRzgE3-27" source="CjwR9QexM5506jJRzgE3-28" target="CjwR9QexM5506jJRzgE3-28">
          <mxGeometry width="50" height="50" relative="1" as="geometry">
            <mxPoint x="157.6271186440678" y="900" as="sourcePoint" />
            <mxPoint x="183.89830508474577" y="750" as="targetPoint" />
          </mxGeometry>
        </mxCell>
        <mxCell id="CjwR9QexM5506jJRzgE3-30" value="" style="endArrow=none;html=1;rounded=0;exitX=0;exitY=1;exitDx=0;exitDy=0;entryX=1;entryY=0;entryDx=0;entryDy=0;" edge="1" parent="CjwR9QexM5506jJRzgE3-27" source="CjwR9QexM5506jJRzgE3-28" target="CjwR9QexM5506jJRzgE3-28">
          <mxGeometry width="50" height="50" relative="1" as="geometry">
            <mxPoint x="5.2542372881355925" y="30" as="sourcePoint" />
            <mxPoint x="315.2542372881356" y="210" as="targetPoint" />
          </mxGeometry>
        </mxCell>
        <mxCell id="CjwR9QexM5506jJRzgE3-31" value="" style="group" vertex="1" connectable="0" parent="CjwR9QexM5506jJRzgE3-24">
          <mxGeometry x="375" y="40" width="310" height="180" as="geometry" />
        </mxCell>
        <mxCell id="CjwR9QexM5506jJRzgE3-32" value="" style="rounded=0;whiteSpace=wrap;html=1;fillColor=none;shadow=0;glass=0;strokeWidth=3;" vertex="1" parent="CjwR9QexM5506jJRzgE3-31">
          <mxGeometry width="310" height="180" as="geometry" />
        </mxCell>
        <mxCell id="CjwR9QexM5506jJRzgE3-33" value="" style="endArrow=none;html=1;rounded=0;exitX=0;exitY=0;exitDx=0;exitDy=0;entryX=1;entryY=1;entryDx=0;entryDy=0;" edge="1" parent="CjwR9QexM5506jJRzgE3-31" source="CjwR9QexM5506jJRzgE3-32" target="CjwR9QexM5506jJRzgE3-32">
          <mxGeometry width="50" height="50" relative="1" as="geometry">
            <mxPoint x="157.6271186440678" y="900" as="sourcePoint" />
            <mxPoint x="183.89830508474577" y="750" as="targetPoint" />
          </mxGeometry>
        </mxCell>
        <mxCell id="CjwR9QexM5506jJRzgE3-34" value="" style="endArrow=none;html=1;rounded=0;exitX=0;exitY=1;exitDx=0;exitDy=0;entryX=1;entryY=0;entryDx=0;entryDy=0;" edge="1" parent="CjwR9QexM5506jJRzgE3-31" source="CjwR9QexM5506jJRzgE3-32" target="CjwR9QexM5506jJRzgE3-32">
          <mxGeometry width="50" height="50" relative="1" as="geometry">
            <mxPoint x="5.2542372881355925" y="30" as="sourcePoint" />
            <mxPoint x="315.2542372881356" y="210" as="targetPoint" />
          </mxGeometry>
        </mxCell>
        <mxCell id="CjwR9QexM5506jJRzgE3-35" value="" style="group" vertex="1" connectable="0" parent="CjwR9QexM5506jJRzgE3-24">
          <mxGeometry x="740" y="40" width="290" height="180" as="geometry" />
        </mxCell>
        <mxCell id="CjwR9QexM5506jJRzgE3-36" value="" style="rounded=0;whiteSpace=wrap;html=1;fillColor=none;shadow=0;glass=0;strokeWidth=3;" vertex="1" parent="CjwR9QexM5506jJRzgE3-35">
          <mxGeometry width="290" height="180" as="geometry" />
        </mxCell>
        <mxCell id="CjwR9QexM5506jJRzgE3-37" value="" style="endArrow=none;html=1;rounded=0;exitX=0;exitY=0;exitDx=0;exitDy=0;entryX=1;entryY=1;entryDx=0;entryDy=0;" edge="1" parent="CjwR9QexM5506jJRzgE3-35" source="CjwR9QexM5506jJRzgE3-36" target="CjwR9QexM5506jJRzgE3-36">
          <mxGeometry width="50" height="50" relative="1" as="geometry">
            <mxPoint x="147.45762711864407" y="900" as="sourcePoint" />
            <mxPoint x="172.03389830508473" y="750" as="targetPoint" />
          </mxGeometry>
        </mxCell>
        <mxCell id="CjwR9QexM5506jJRzgE3-38" value="" style="endArrow=none;html=1;rounded=0;exitX=0;exitY=1;exitDx=0;exitDy=0;entryX=1;entryY=0;entryDx=0;entryDy=0;" edge="1" parent="CjwR9QexM5506jJRzgE3-35" source="CjwR9QexM5506jJRzgE3-36" target="CjwR9QexM5506jJRzgE3-36">
          <mxGeometry width="50" height="50" relative="1" as="geometry">
            <mxPoint x="4.915254237288135" y="30" as="sourcePoint" />
            <mxPoint x="294.91525423728814" y="210" as="targetPoint" />
          </mxGeometry>
        </mxCell>
        <mxCell id="CjwR9QexM5506jJRzgE3-26" value="" style="group" vertex="1" connectable="0" parent="1">
          <mxGeometry x="170" y="10" width="590" height="60" as="geometry" />
        </mxCell>
        <mxCell id="CjwR9QexM5506jJRzgE3-15" value="" style="rounded=0;whiteSpace=wrap;html=1;fillColor=none;shadow=0;glass=0;strokeWidth=3;" vertex="1" parent="CjwR9QexM5506jJRzgE3-26">
          <mxGeometry width="590" height="60" as="geometry" />
        </mxCell>
        <mxCell id="CjwR9QexM5506jJRzgE3-17" value="" style="endArrow=none;html=1;rounded=0;exitX=0;exitY=0;exitDx=0;exitDy=0;entryX=1;entryY=1;entryDx=0;entryDy=0;" edge="1" parent="CjwR9QexM5506jJRzgE3-26" source="CjwR9QexM5506jJRzgE3-15" target="CjwR9QexM5506jJRzgE3-15">
          <mxGeometry width="50" height="50" relative="1" as="geometry">
            <mxPoint x="300" y="300" as="sourcePoint" />
            <mxPoint x="350" y="250" as="targetPoint" />
          </mxGeometry>
        </mxCell>
        <mxCell id="CjwR9QexM5506jJRzgE3-18" value="" style="endArrow=none;html=1;rounded=0;exitX=0;exitY=1;exitDx=0;exitDy=0;entryX=1;entryY=0;entryDx=0;entryDy=0;" edge="1" parent="CjwR9QexM5506jJRzgE3-26" source="CjwR9QexM5506jJRzgE3-15" target="CjwR9QexM5506jJRzgE3-15">
          <mxGeometry width="50" height="50" relative="1" as="geometry">
            <mxPoint x="10" y="10" as="sourcePoint" />
            <mxPoint x="600" y="70" as="targetPoint" />
          </mxGeometry>
        </mxCell>
        <mxCell id="f8PY3ICDIifYhq5LfDUk-1" value="&lt;h1 style=&quot;margin-top: 0px;&quot;&gt;Heading&lt;/h1&gt;&lt;p&gt;Lorem ipsum dolor sit amet, consectetur adipisicing elit, sed do eiusmod tempor incididunt ut labore et dolore magna aliqua.&lt;/p&gt;" style="text;html=1;whiteSpace=wrap;overflow=hidden;rounded=0;" vertex="1" parent="1">
          <mxGeometry x="20" y="360" width="1060" height="130" as="geometry" />
        </mxCell>
        <mxCell id="f8PY3ICDIifYhq5LfDUk-3" value="Image" style="ellipse;whiteSpace=wrap;html=1;" vertex="1" parent="1">
          <mxGeometry x="430" y="470" width="270" height="260" as="geometry" />
        </mxCell>
      </root>
    </mxGraphModel>
  </diagram>
  <diagram name="Desktop Catalog" id="0mbls6F3-0RIerfcZJPg">
    <mxGraphModel dx="2603" dy="1257" grid="1" gridSize="10" guides="1" tooltips="1" connect="1" arrows="1" fold="1" page="1" pageScale="1" pageWidth="1100" pageHeight="850" math="0" shadow="0">
      <root>
        <mxCell id="WM_1MSW5LVpyBz3LDrRU-0" />
        <mxCell id="WM_1MSW5LVpyBz3LDrRU-1" parent="WM_1MSW5LVpyBz3LDrRU-0" />
        <mxCell id="WM_1MSW5LVpyBz3LDrRU-2" value="" style="swimlane;shape=mxgraph.bootstrap.anchor;strokeColor=#999999;fillColor=#ffffff;fontColor=#666666;childLayout=stackLayout;horizontal=0;startSize=0;horizontalStack=1;resizeParent=1;resizeParentMax=0;resizeLast=0;collapsible=0;marginBottom=0;whiteSpace=wrap;html=1;" vertex="1" parent="WM_1MSW5LVpyBz3LDrRU-1">
          <mxGeometry x="780" y="10" width="300" height="60" as="geometry" />
        </mxCell>
        <mxCell id="WM_1MSW5LVpyBz3LDrRU-3" value="Home" style="text;strokeColor=inherit;align=center;verticalAlign=middle;spacingLeft=10;spacingRight=10;overflow=hidden;points=[[0,0.5],[1,0.5]];portConstraint=eastwest;rotatable=0;whiteSpace=wrap;html=1;fillColor=inherit;fontColor=inherit;fontSize=17;" vertex="1" parent="WM_1MSW5LVpyBz3LDrRU-2">
          <mxGeometry width="90" height="60" as="geometry" />
        </mxCell>
        <mxCell id="WM_1MSW5LVpyBz3LDrRU-4" value="Catalog" style="text;strokeColor=inherit;align=center;verticalAlign=middle;spacingLeft=10;spacingRight=10;overflow=hidden;points=[[0,0.5],[1,0.5]];portConstraint=eastwest;rotatable=0;whiteSpace=wrap;html=1;fillColor=inherit;fontColor=inherit;fontSize=17;" vertex="1" parent="WM_1MSW5LVpyBz3LDrRU-2">
          <mxGeometry x="90" width="90" height="60" as="geometry" />
        </mxCell>
        <mxCell id="WM_1MSW5LVpyBz3LDrRU-5" value="Rate" style="text;strokeColor=inherit;align=center;verticalAlign=middle;spacingLeft=10;spacingRight=10;overflow=hidden;points=[[0,0.5],[1,0.5]];portConstraint=eastwest;rotatable=0;whiteSpace=wrap;html=1;fillColor=inherit;fontColor=inherit;fontSize=17;" vertex="1" parent="WM_1MSW5LVpyBz3LDrRU-2">
          <mxGeometry x="180" width="120" height="60" as="geometry" />
        </mxCell>
        <mxCell id="WM_1MSW5LVpyBz3LDrRU-6" value="&lt;font style=&quot;font-size: 18px;&quot;&gt;Cinema Orellana&lt;/font&gt;" style="text;html=1;align=left;verticalAlign=middle;whiteSpace=wrap;rounded=0;" vertex="1" parent="WM_1MSW5LVpyBz3LDrRU-1">
          <mxGeometry x="10" y="25" width="290" height="30" as="geometry" />
        </mxCell>
        <mxCell id="WM_1MSW5LVpyBz3LDrRU-7" value="" style="verticalLabelPosition=bottom;verticalAlign=top;html=1;shape=mxgraph.basic.rect;fillColor2=none;strokeWidth=1;size=20;indent=0;" vertex="1" parent="WM_1MSW5LVpyBz3LDrRU-1">
          <mxGeometry y="790" width="1100" height="60" as="geometry" />
        </mxCell>
        <mxCell id="WM_1MSW5LVpyBz3LDrRU-21" value="" style="group" vertex="1" connectable="0" parent="WM_1MSW5LVpyBz3LDrRU-1">
          <mxGeometry x="170" y="10" width="590" height="60" as="geometry" />
        </mxCell>
        <mxCell id="WM_1MSW5LVpyBz3LDrRU-22" value="" style="rounded=0;whiteSpace=wrap;html=1;fillColor=none;shadow=0;glass=0;strokeWidth=3;" vertex="1" parent="WM_1MSW5LVpyBz3LDrRU-21">
          <mxGeometry width="590" height="60" as="geometry" />
        </mxCell>
        <mxCell id="WM_1MSW5LVpyBz3LDrRU-23" value="" style="endArrow=none;html=1;rounded=0;exitX=0;exitY=0;exitDx=0;exitDy=0;entryX=1;entryY=1;entryDx=0;entryDy=0;" edge="1" parent="WM_1MSW5LVpyBz3LDrRU-21" source="WM_1MSW5LVpyBz3LDrRU-22" target="WM_1MSW5LVpyBz3LDrRU-22">
          <mxGeometry width="50" height="50" relative="1" as="geometry">
            <mxPoint x="300" y="300" as="sourcePoint" />
            <mxPoint x="350" y="250" as="targetPoint" />
          </mxGeometry>
        </mxCell>
        <mxCell id="WM_1MSW5LVpyBz3LDrRU-24" value="" style="endArrow=none;html=1;rounded=0;exitX=0;exitY=1;exitDx=0;exitDy=0;entryX=1;entryY=0;entryDx=0;entryDy=0;" edge="1" parent="WM_1MSW5LVpyBz3LDrRU-21" source="WM_1MSW5LVpyBz3LDrRU-22" target="WM_1MSW5LVpyBz3LDrRU-22">
          <mxGeometry width="50" height="50" relative="1" as="geometry">
            <mxPoint x="10" y="10" as="sourcePoint" />
            <mxPoint x="600" y="70" as="targetPoint" />
          </mxGeometry>
        </mxCell>
        <mxCell id="74FeJp0A8svfhdFrv0_G-0" value="&lt;font style=&quot;font-size: 18px;&quot;&gt;Grid&lt;/font&gt;" style="text;html=1;align=left;verticalAlign=middle;whiteSpace=wrap;rounded=0;" vertex="1" parent="WM_1MSW5LVpyBz3LDrRU-1">
          <mxGeometry x="260" y="100" width="60" height="30" as="geometry" />
        </mxCell>
        <mxCell id="74FeJp0A8svfhdFrv0_G-1" value="&lt;font style=&quot;font-size: 18px;&quot;&gt;List&lt;/font&gt;" style="text;html=1;align=left;verticalAlign=middle;whiteSpace=wrap;rounded=0;" vertex="1" parent="WM_1MSW5LVpyBz3LDrRU-1">
          <mxGeometry x="730" y="100" width="60" height="30" as="geometry" />
        </mxCell>
        <mxCell id="74FeJp0A8svfhdFrv0_G-3" value="" style="rounded=0;whiteSpace=wrap;html=1;" vertex="1" parent="WM_1MSW5LVpyBz3LDrRU-1">
          <mxGeometry x="30" y="140" width="1030" height="620" as="geometry" />
        </mxCell>
      </root>
    </mxGraphModel>
  </diagram>
  <diagram name="Desktop Rate" id="fj3VL6GMhJTzUuTDlaRs">
    <mxGraphModel dx="1562" dy="754" grid="1" gridSize="10" guides="1" tooltips="1" connect="1" arrows="1" fold="1" page="1" pageScale="1" pageWidth="1100" pageHeight="850" math="0" shadow="0">
      <root>
        <mxCell id="ARparFmLPRT5AjgVv9i2-0" />
        <mxCell id="ARparFmLPRT5AjgVv9i2-1" parent="ARparFmLPRT5AjgVv9i2-0" />
        <mxCell id="ARparFmLPRT5AjgVv9i2-2" value="" style="swimlane;shape=mxgraph.bootstrap.anchor;strokeColor=#999999;fillColor=#ffffff;fontColor=#666666;childLayout=stackLayout;horizontal=0;startSize=0;horizontalStack=1;resizeParent=1;resizeParentMax=0;resizeLast=0;collapsible=0;marginBottom=0;whiteSpace=wrap;html=1;" vertex="1" parent="ARparFmLPRT5AjgVv9i2-1">
          <mxGeometry x="780" y="10" width="300" height="60" as="geometry" />
        </mxCell>
        <mxCell id="ARparFmLPRT5AjgVv9i2-3" value="Home" style="text;strokeColor=inherit;align=center;verticalAlign=middle;spacingLeft=10;spacingRight=10;overflow=hidden;points=[[0,0.5],[1,0.5]];portConstraint=eastwest;rotatable=0;whiteSpace=wrap;html=1;fillColor=inherit;fontColor=inherit;fontSize=17;" vertex="1" parent="ARparFmLPRT5AjgVv9i2-2">
          <mxGeometry width="90" height="60" as="geometry" />
        </mxCell>
        <mxCell id="ARparFmLPRT5AjgVv9i2-4" value="Catalog" style="text;strokeColor=inherit;align=center;verticalAlign=middle;spacingLeft=10;spacingRight=10;overflow=hidden;points=[[0,0.5],[1,0.5]];portConstraint=eastwest;rotatable=0;whiteSpace=wrap;html=1;fillColor=inherit;fontColor=inherit;fontSize=17;" vertex="1" parent="ARparFmLPRT5AjgVv9i2-2">
          <mxGeometry x="90" width="90" height="60" as="geometry" />
        </mxCell>
        <mxCell id="ARparFmLPRT5AjgVv9i2-5" value="Rate" style="text;strokeColor=inherit;align=center;verticalAlign=middle;spacingLeft=10;spacingRight=10;overflow=hidden;points=[[0,0.5],[1,0.5]];portConstraint=eastwest;rotatable=0;whiteSpace=wrap;html=1;fillColor=inherit;fontColor=inherit;fontSize=17;" vertex="1" parent="ARparFmLPRT5AjgVv9i2-2">
          <mxGeometry x="180" width="120" height="60" as="geometry" />
        </mxCell>
        <mxCell id="ARparFmLPRT5AjgVv9i2-6" value="&lt;font style=&quot;font-size: 18px;&quot;&gt;Cinema Orellana&lt;/font&gt;" style="text;html=1;align=left;verticalAlign=middle;whiteSpace=wrap;rounded=0;" vertex="1" parent="ARparFmLPRT5AjgVv9i2-1">
          <mxGeometry x="10" y="25" width="290" height="30" as="geometry" />
        </mxCell>
        <mxCell id="ARparFmLPRT5AjgVv9i2-7" value="" style="verticalLabelPosition=bottom;verticalAlign=top;html=1;shape=mxgraph.basic.rect;fillColor2=none;strokeWidth=1;size=20;indent=0;" vertex="1" parent="ARparFmLPRT5AjgVv9i2-1">
          <mxGeometry y="790" width="1100" height="60" as="geometry" />
        </mxCell>
        <mxCell id="ARparFmLPRT5AjgVv9i2-8" value="" style="group" vertex="1" connectable="0" parent="ARparFmLPRT5AjgVv9i2-1">
          <mxGeometry x="170" y="10" width="590" height="60" as="geometry" />
        </mxCell>
        <mxCell id="ARparFmLPRT5AjgVv9i2-9" value="" style="rounded=0;whiteSpace=wrap;html=1;fillColor=none;shadow=0;glass=0;strokeWidth=3;" vertex="1" parent="ARparFmLPRT5AjgVv9i2-8">
          <mxGeometry width="590" height="60" as="geometry" />
        </mxCell>
        <mxCell id="ARparFmLPRT5AjgVv9i2-10" value="" style="endArrow=none;html=1;rounded=0;exitX=0;exitY=0;exitDx=0;exitDy=0;entryX=1;entryY=1;entryDx=0;entryDy=0;" edge="1" parent="ARparFmLPRT5AjgVv9i2-8" source="ARparFmLPRT5AjgVv9i2-9" target="ARparFmLPRT5AjgVv9i2-9">
          <mxGeometry width="50" height="50" relative="1" as="geometry">
            <mxPoint x="300" y="300" as="sourcePoint" />
            <mxPoint x="350" y="250" as="targetPoint" />
          </mxGeometry>
        </mxCell>
        <mxCell id="ARparFmLPRT5AjgVv9i2-11" value="" style="endArrow=none;html=1;rounded=0;exitX=0;exitY=1;exitDx=0;exitDy=0;entryX=1;entryY=0;entryDx=0;entryDy=0;" edge="1" parent="ARparFmLPRT5AjgVv9i2-8" source="ARparFmLPRT5AjgVv9i2-9" target="ARparFmLPRT5AjgVv9i2-9">
          <mxGeometry width="50" height="50" relative="1" as="geometry">
            <mxPoint x="10" y="10" as="sourcePoint" />
            <mxPoint x="600" y="70" as="targetPoint" />
          </mxGeometry>
        </mxCell>
        <mxCell id="lVlZHnd_0cexNr-0iKT_-0" value="" style="verticalLabelPosition=bottom;verticalAlign=top;html=1;shape=mxgraph.basic.patternFillRect;fillStyle=diag;step=5;fillStrokeWidth=0.2;fillStrokeColor=#dddddd;" vertex="1" parent="ARparFmLPRT5AjgVv9i2-1">
          <mxGeometry x="170" y="100" width="770" height="660" as="geometry" />
        </mxCell>
        <mxCell id="lVlZHnd_0cexNr-0iKT_-2" value="&lt;font style=&quot;font-size: 18px;&quot;&gt;Form&lt;/font&gt;" style="text;html=1;align=left;verticalAlign=middle;whiteSpace=wrap;rounded=0;" vertex="1" parent="ARparFmLPRT5AjgVv9i2-1">
          <mxGeometry x="520" y="120" width="70" height="30" as="geometry" />
        </mxCell>
      </root>
    </mxGraphModel>
  </diagram>
  <diagram id="_ozMoGxSOziyN_XuL4qJ" name="Mobile Home">
    <mxGraphModel dx="1838" dy="887" grid="1" gridSize="10" guides="1" tooltips="1" connect="1" arrows="1" fold="1" page="1" pageScale="1" pageWidth="850" pageHeight="1100" math="0" shadow="0">
      <root>
        <mxCell id="0" />
        <mxCell id="1" parent="0" />
        <mxCell id="s3XpFsRb9L20ykjZllOL-1" value="" style="verticalLabelPosition=bottom;verticalAlign=top;html=1;shape=mxgraph.basic.rect;fillColor2=none;strokeWidth=1;size=20;indent=0;" vertex="1" parent="1">
          <mxGeometry y="1040" width="850" height="60" as="geometry" />
        </mxCell>
        <mxCell id="s3XpFsRb9L20ykjZllOL-2" value="Top Best Movies" style="swimlane;" vertex="1" parent="1">
          <mxGeometry x="20" y="100" width="790" height="510" as="geometry" />
        </mxCell>
        <mxCell id="s3XpFsRb9L20ykjZllOL-3" value="" style="group" vertex="1" connectable="0" parent="s3XpFsRb9L20ykjZllOL-2">
          <mxGeometry x="250" y="50" width="310" height="180" as="geometry" />
        </mxCell>
        <mxCell id="s3XpFsRb9L20ykjZllOL-4" value="" style="rounded=0;whiteSpace=wrap;html=1;fillColor=none;shadow=0;glass=0;strokeWidth=3;" vertex="1" parent="s3XpFsRb9L20ykjZllOL-3">
          <mxGeometry width="310" height="180" as="geometry" />
        </mxCell>
        <mxCell id="s3XpFsRb9L20ykjZllOL-5" value="" style="endArrow=none;html=1;rounded=0;exitX=0;exitY=0;exitDx=0;exitDy=0;entryX=1;entryY=1;entryDx=0;entryDy=0;" edge="1" parent="s3XpFsRb9L20ykjZllOL-3" source="s3XpFsRb9L20ykjZllOL-4" target="s3XpFsRb9L20ykjZllOL-4">
          <mxGeometry width="50" height="50" relative="1" as="geometry">
            <mxPoint x="157.6271186440678" y="900" as="sourcePoint" />
            <mxPoint x="183.89830508474577" y="750" as="targetPoint" />
          </mxGeometry>
        </mxCell>
        <mxCell id="s3XpFsRb9L20ykjZllOL-6" value="" style="endArrow=none;html=1;rounded=0;exitX=0;exitY=1;exitDx=0;exitDy=0;entryX=1;entryY=0;entryDx=0;entryDy=0;" edge="1" parent="s3XpFsRb9L20ykjZllOL-3" source="s3XpFsRb9L20ykjZllOL-4" target="s3XpFsRb9L20ykjZllOL-4">
          <mxGeometry width="50" height="50" relative="1" as="geometry">
            <mxPoint x="5.2542372881355925" y="30" as="sourcePoint" />
            <mxPoint x="315.2542372881356" y="210" as="targetPoint" />
          </mxGeometry>
        </mxCell>
        <mxCell id="s3XpFsRb9L20ykjZllOL-15" value="&lt;h1 style=&quot;margin-top: 0px;&quot;&gt;Heading&lt;/h1&gt;&lt;p&gt;Lorem ipsum dolor sit amet, consectetur adipisicing elit, sed do eiusmod tempor incididunt ut labore et dolore magna aliqua.&lt;/p&gt;" style="text;html=1;whiteSpace=wrap;overflow=hidden;rounded=0;" vertex="1" parent="1">
          <mxGeometry x="30" y="610" width="790" height="130" as="geometry" />
        </mxCell>
        <mxCell id="s3XpFsRb9L20ykjZllOL-16" value="Image" style="ellipse;whiteSpace=wrap;html=1;" vertex="1" parent="1">
          <mxGeometry x="280" y="750" width="270" height="260" as="geometry" />
        </mxCell>
        <mxCell id="s3XpFsRb9L20ykjZllOL-7" value="" style="group" vertex="1" connectable="0" parent="1">
          <mxGeometry x="270" y="370" width="310" height="180" as="geometry" />
        </mxCell>
        <mxCell id="s3XpFsRb9L20ykjZllOL-8" value="" style="rounded=0;whiteSpace=wrap;html=1;fillColor=none;shadow=0;glass=0;strokeWidth=3;" vertex="1" parent="s3XpFsRb9L20ykjZllOL-7">
          <mxGeometry width="310" height="180" as="geometry" />
        </mxCell>
        <mxCell id="s3XpFsRb9L20ykjZllOL-9" value="" style="endArrow=none;html=1;rounded=0;exitX=0;exitY=0;exitDx=0;exitDy=0;entryX=1;entryY=1;entryDx=0;entryDy=0;" edge="1" parent="s3XpFsRb9L20ykjZllOL-7" source="s3XpFsRb9L20ykjZllOL-8" target="s3XpFsRb9L20ykjZllOL-8">
          <mxGeometry width="50" height="50" relative="1" as="geometry">
            <mxPoint x="157.6271186440678" y="900" as="sourcePoint" />
            <mxPoint x="183.89830508474577" y="750" as="targetPoint" />
          </mxGeometry>
        </mxCell>
        <mxCell id="s3XpFsRb9L20ykjZllOL-10" value="" style="endArrow=none;html=1;rounded=0;exitX=0;exitY=1;exitDx=0;exitDy=0;entryX=1;entryY=0;entryDx=0;entryDy=0;" edge="1" parent="s3XpFsRb9L20ykjZllOL-7" source="s3XpFsRb9L20ykjZllOL-8" target="s3XpFsRb9L20ykjZllOL-8">
          <mxGeometry width="50" height="50" relative="1" as="geometry">
            <mxPoint x="5.2542372881355925" y="30" as="sourcePoint" />
            <mxPoint x="315.2542372881356" y="210" as="targetPoint" />
          </mxGeometry>
        </mxCell>
        <mxCell id="s3XpFsRb9L20ykjZllOL-17" value="Disabled" style="rounded=1;html=1;shadow=0;dashed=0;whiteSpace=wrap;fontSize=10;fillColor=#333333;align=center;strokeColor=#333333;fontColor=#666666;" vertex="1" parent="1">
          <mxGeometry x="720" y="10" width="105.5" height="16.88" as="geometry" />
        </mxCell>
        <mxCell id="s3XpFsRb9L20ykjZllOL-18" value="Disabled" style="rounded=1;html=1;shadow=0;dashed=0;whiteSpace=wrap;fontSize=10;fillColor=#333333;align=center;strokeColor=#333333;fontColor=#666666;" vertex="1" parent="1">
          <mxGeometry x="720" y="40" width="105.5" height="16.88" as="geometry" />
        </mxCell>
        <mxCell id="s3XpFsRb9L20ykjZllOL-19" value="Disabled" style="rounded=1;html=1;shadow=0;dashed=0;whiteSpace=wrap;fontSize=10;fillColor=#333333;align=center;strokeColor=#333333;fontColor=#666666;" vertex="1" parent="1">
          <mxGeometry x="720" y="70" width="105.5" height="16.88" as="geometry" />
        </mxCell>
        <mxCell id="s3XpFsRb9L20ykjZllOL-20" value="&lt;font style=&quot;font-size: 24px;&quot;&gt;CINEMA ORELLANA&lt;/font&gt;" style="text;html=1;align=center;verticalAlign=middle;whiteSpace=wrap;rounded=0;" vertex="1" parent="1">
          <mxGeometry x="30" y="20" width="620" height="50" as="geometry" />
        </mxCell>
      </root>
    </mxGraphModel>
  </diagram>
  <diagram name="Mobile Catalog" id="3GtHA9alnhvjFcYZC-rB">
    <mxGraphModel dx="2840" dy="1371" grid="1" gridSize="10" guides="1" tooltips="1" connect="1" arrows="1" fold="1" page="1" pageScale="1" pageWidth="850" pageHeight="1100" math="0" shadow="0">
      <root>
        <mxCell id="kJQR_scWvdu6D8NxSYmx-0" />
        <mxCell id="kJQR_scWvdu6D8NxSYmx-1" parent="kJQR_scWvdu6D8NxSYmx-0" />
        <mxCell id="kJQR_scWvdu6D8NxSYmx-2" value="" style="verticalLabelPosition=bottom;verticalAlign=top;html=1;shape=mxgraph.basic.rect;fillColor2=none;strokeWidth=1;size=20;indent=0;" vertex="1" parent="kJQR_scWvdu6D8NxSYmx-1">
          <mxGeometry y="1040" width="850" height="60" as="geometry" />
        </mxCell>
        <mxCell id="kJQR_scWvdu6D8NxSYmx-3" value="Top Best Movies" style="swimlane;" vertex="1" parent="kJQR_scWvdu6D8NxSYmx-1">
          <mxGeometry x="20" y="180" width="790" height="820" as="geometry" />
        </mxCell>
        <mxCell id="kJQR_scWvdu6D8NxSYmx-14" value="Disabled" style="rounded=1;html=1;shadow=0;dashed=0;whiteSpace=wrap;fontSize=10;fillColor=#333333;align=center;strokeColor=#333333;fontColor=#666666;" vertex="1" parent="kJQR_scWvdu6D8NxSYmx-1">
          <mxGeometry x="720" y="10" width="105.5" height="16.88" as="geometry" />
        </mxCell>
        <mxCell id="kJQR_scWvdu6D8NxSYmx-15" value="Disabled" style="rounded=1;html=1;shadow=0;dashed=0;whiteSpace=wrap;fontSize=10;fillColor=#333333;align=center;strokeColor=#333333;fontColor=#666666;" vertex="1" parent="kJQR_scWvdu6D8NxSYmx-1">
          <mxGeometry x="720" y="40" width="105.5" height="16.88" as="geometry" />
        </mxCell>
        <mxCell id="kJQR_scWvdu6D8NxSYmx-16" value="Disabled" style="rounded=1;html=1;shadow=0;dashed=0;whiteSpace=wrap;fontSize=10;fillColor=#333333;align=center;strokeColor=#333333;fontColor=#666666;" vertex="1" parent="kJQR_scWvdu6D8NxSYmx-1">
          <mxGeometry x="720" y="70" width="105.5" height="16.88" as="geometry" />
        </mxCell>
        <mxCell id="kJQR_scWvdu6D8NxSYmx-17" value="&lt;font style=&quot;font-size: 24px;&quot;&gt;CINEMA ORELLANA&lt;/font&gt;" style="text;html=1;align=center;verticalAlign=middle;whiteSpace=wrap;rounded=0;" vertex="1" parent="kJQR_scWvdu6D8NxSYmx-1">
          <mxGeometry x="30" y="20" width="620" height="50" as="geometry" />
        </mxCell>
        <mxCell id="0lu5xaC-HLbQdDycWA66-0" value="&lt;font style=&quot;font-size: 18px;&quot;&gt;Grid&lt;/font&gt;" style="text;html=1;align=left;verticalAlign=middle;whiteSpace=wrap;rounded=0;" vertex="1" parent="kJQR_scWvdu6D8NxSYmx-1">
          <mxGeometry x="170" y="120" width="60" height="30" as="geometry" />
        </mxCell>
        <mxCell id="0lu5xaC-HLbQdDycWA66-1" value="&lt;font style=&quot;font-size: 18px;&quot;&gt;List&lt;/font&gt;" style="text;html=1;align=left;verticalAlign=middle;whiteSpace=wrap;rounded=0;" vertex="1" parent="kJQR_scWvdu6D8NxSYmx-1">
          <mxGeometry x="640" y="120" width="60" height="30" as="geometry" />
        </mxCell>
      </root>
    </mxGraphModel>
  </diagram>
  <diagram name="Mobile Rate" id="yDzAjtGN1WBMwxTX1Px-">
    <mxGraphModel dx="1562" dy="754" grid="1" gridSize="10" guides="1" tooltips="1" connect="1" arrows="1" fold="1" page="1" pageScale="1" pageWidth="850" pageHeight="1100" math="0" shadow="0">
      <root>
        <mxCell id="dos4GZDRN_P2i1TYlPnP-0" />
        <mxCell id="dos4GZDRN_P2i1TYlPnP-1" parent="dos4GZDRN_P2i1TYlPnP-0" />
        <mxCell id="dos4GZDRN_P2i1TYlPnP-2" value="" style="verticalLabelPosition=bottom;verticalAlign=top;html=1;shape=mxgraph.basic.rect;fillColor2=none;strokeWidth=1;size=20;indent=0;" vertex="1" parent="dos4GZDRN_P2i1TYlPnP-1">
          <mxGeometry y="1040" width="850" height="60" as="geometry" />
        </mxCell>
        <mxCell id="dos4GZDRN_P2i1TYlPnP-3" value="Form" style="swimlane;startSize=50;" vertex="1" parent="dos4GZDRN_P2i1TYlPnP-1">
          <mxGeometry x="20" y="110" width="790" height="890" as="geometry" />
        </mxCell>
        <mxCell id="dos4GZDRN_P2i1TYlPnP-4" value="Disabled" style="rounded=1;html=1;shadow=0;dashed=0;whiteSpace=wrap;fontSize=10;fillColor=#333333;align=center;strokeColor=#333333;fontColor=#666666;" vertex="1" parent="dos4GZDRN_P2i1TYlPnP-1">
          <mxGeometry x="720" y="10" width="105.5" height="16.88" as="geometry" />
        </mxCell>
        <mxCell id="dos4GZDRN_P2i1TYlPnP-5" value="Disabled" style="rounded=1;html=1;shadow=0;dashed=0;whiteSpace=wrap;fontSize=10;fillColor=#333333;align=center;strokeColor=#333333;fontColor=#666666;" vertex="1" parent="dos4GZDRN_P2i1TYlPnP-1">
          <mxGeometry x="720" y="40" width="105.5" height="16.88" as="geometry" />
        </mxCell>
        <mxCell id="dos4GZDRN_P2i1TYlPnP-6" value="Disabled" style="rounded=1;html=1;shadow=0;dashed=0;whiteSpace=wrap;fontSize=10;fillColor=#333333;align=center;strokeColor=#333333;fontColor=#666666;" vertex="1" parent="dos4GZDRN_P2i1TYlPnP-1">
          <mxGeometry x="720" y="70" width="105.5" height="16.88" as="geometry" />
        </mxCell>
        <mxCell id="dos4GZDRN_P2i1TYlPnP-7" value="&lt;font style=&quot;font-size: 24px;&quot;&gt;CINEMA ORELLANA&lt;/font&gt;" style="text;html=1;align=center;verticalAlign=middle;whiteSpace=wrap;rounded=0;" vertex="1" parent="dos4GZDRN_P2i1TYlPnP-1">
          <mxGeometry x="30" y="20" width="620" height="50" as="geometry" />
        </mxCell>
      </root>
    </mxGraphModel>
  </diagram>
</mxfile>
